IKResults
version=1
nRows=7
nColumns=63
inDegrees=yes

Units are S.I. units (second, meters, Newtons, ...)
If the header above contains a line with 'inDegrees', this indicates whether rotational values are in degrees (yes) or radians (no).

endheader
time	pelvis_tilt	pelvis_list	pelvis_rotation	pelvis_tx	pelvis_ty	pelvis_tz	hip_flexion_r	hip_adduction_r	hip_rotation_r	knee_angle_r	knee_angle_r_beta	ankle_angle_r	subtalar_angle_r	mtp_angle_r	hip_flexion_l	hip_adduction_l	hip_rotation_l	knee_angle_l	knee_angle_l_beta	ankle_angle_l	subtalar_angle_l	mtp_angle_l	L5_S1_Flex_Ext	L5_S1_Lat_Bending	L5_S1_axial_rotation	L4_L5_Flex_Ext	L4_L5_Lat_Bending	L4_L5_axial_rotation	L3_L4_Flex_Ext	L3_L4_Lat_Bending	L3_L4_axial_rotation	L2_L3_Flex_Ext	L2_L3_Lat_Bending	L2_L3_axial_rotation	L1_L2_Flex_Ext	L1_L2_Lat_Bending	L1_L2_axial_rotation	L1_T12_Flex_Ext	L1_T12_Lat_Bending	L1_T12_axial_rotation	Abs_r3	Abs_r2	Abs_r1	Abs_t1	Abs_t2	neck_flexion	neck_bending	neck_rotation	arm_flex_r	arm_add_r	arm_rot_r	elbow_flex_r	pro_sup_r	wrist_flex_r	wrist_dev_r	arm_flex_l	arm_add_l	arm_rot_l	elbow_flex_l	pro_sup_l	wrist_flex_l	wrist_dev_l
      4.03333333	     69.00838018	     -1.35870174	     -3.23007486	     -0.90025717	      0.33612660	     -0.50210997	     32.03735282	    -13.98739036	      3.84080996	     43.31405208	      0.75597282	    -28.17015460	    -18.23446142	      0.00000000	     32.54124879	    -20.44642158	      4.89963662	     50.62361717	      0.88354880	    -19.22293712	    -19.36496264	      0.00000000	    -10.57997149	     -0.29502970	      0.25281103	    -19.64806505	     -0.39238950	      0.26861172	    -17.38183515	     -0.71733521	      0.26861172	    -12.09184941	     -0.71733521	      0.22120965	     -9.82456152	     -0.60162456	      0.20540896	     -6.04539571	     -0.45700100	      0.18960827	    -75.57167832	     -3.33743496	      1.40605911	      0.00000000	      0.00000000	     28.25466809	     -2.01763300	    -13.08532199	     15.65436715	    -14.48311075	    -30.24116942	     25.05008833	     89.99559364	      0.00000000	      0.00000000	     15.46577251	    -19.97948090	    -17.27813111	     33.07651873	     89.99559364	      0.00000000	      0.00000000
      4.06666667	     68.98868333	     -1.37467541	     -3.24091863	     -0.90046400	      0.33591359	     -0.50233322	     32.06043990	    -13.97290608	      3.82834460	     43.26114686	      0.75504945	    -28.19697039	    -18.20250046	      0.00000000	     32.56635025	    -20.41482476	      4.92526425	     50.50761097	      0.88152411	    -19.23888544	    -19.35007976	      0.00000000	    -10.57115801	     -0.29315969	      0.25709023	    -19.63169755	     -0.38990238	      0.27315837	    -17.36735550	     -0.71278846	      0.27315837	    -12.08177649	     -0.71278846	      0.22495395	     -9.81637733	     -0.59781123	      0.20888581	     -6.04035969	     -0.45410436	      0.19281767	    -75.50872457	     -3.31628102	      1.42985873	      0.00000000	      0.00000000	     28.27162915	     -2.02281376	    -13.08943303	     15.69506172	    -14.53267174	    -30.24431475	     25.04915857	     89.99559364	      0.00000000	      0.00000000	     15.47655744	    -19.93769193	    -17.27070990	     33.04481741	     89.99559364	      0.00000000	      0.00000000
      4.10000000	     68.79079315	     -1.41931797	     -3.22791823	     -0.90105688	      0.33559255	     -0.50250076	     32.13243687	    -13.90778142	      3.77878622	     42.90123598	      0.74876782	    -28.51096667	    -18.16894984	      0.00000000	     32.63841060	    -20.35823606	      5.05067538	     50.03884852	      0.87334266	    -19.45943674	    -19.37092717	      0.00000000	    -10.54286104	     -0.28192773	      0.28580005	    -19.57914724	     -0.37496389	      0.30366255	    -17.32086640	     -0.68547909	      0.30366255	    -12.04943588	     -0.68547909	      0.25007504	     -9.79010076	     -0.57490704	      0.23221254	     -6.02419080	     -0.43670606	      0.21435003	    -75.30660212	     -3.18922292	      1.58953411	      0.00000000	      0.00000000	     28.25244866	     -2.06160647	    -13.13854608	     15.75196402	    -14.62579813	    -30.23292091	     24.94179605	     89.99559364	      0.00000000	      0.00000000	     15.72292827	    -19.81948859	    -17.26152999	     32.83907746	     89.99559364	      0.00000000	      0.00000000
      4.13333333	     68.75430762	     -1.48114876	     -3.24773024	     -0.90147928	      0.33548455	     -0.50260754	     32.08911500	    -13.82396896	      3.74947996	     42.65945776	      0.74454799	    -28.75771537	    -18.16007353	      0.00000000	     32.62844600	    -20.39639003	      5.05190656	     49.79090897	      0.86901530	    -19.66487138	    -19.36862648	      0.00000000	    -10.53451398	     -0.27320672	      0.31778269	    -19.56364591	     -0.36336494	      0.33764411	    -17.30715302	     -0.66427482	      0.33764411	    -12.03989603	     -0.66427482	      0.27805986	     -9.78234968	     -0.55712314	      0.25819844	     -6.01942129	     -0.42319721	      0.23833702	    -75.24697991	     -3.09056904	      1.76741201	      0.00000000	      0.00000000	     28.25156215	     -2.10729721	    -13.26114004	     15.76831872	    -14.72615564	    -30.21748976	     24.84022882	     89.99559364	      0.00000000	      0.00000000	     15.97018593	    -19.70076181	    -17.24160837	     32.59891055	     89.99559364	      0.00000000	      0.00000000
      4.16666667	     68.78875457	     -1.49535607	     -3.25731505	     -0.90144577	      0.33541582	     -0.50266303	     32.06867199	    -13.79731984	      3.75366061	     42.62880389	      0.74401298	    -28.76876323	    -18.12477747	      0.00000000	     32.60956667	    -20.40397787	      5.03568377	     49.71931336	      0.86776572	    -19.67730729	    -19.35138079	      0.00000000	    -10.52893391	     -0.27187654	      0.32501390	    -19.55328317	     -0.36159580	      0.34532727	    -17.29798553	     -0.66104063	      0.34532727	    -12.03351857	     -0.66104063	      0.28438716	     -9.77716803	     -0.55441065	      0.26407380	     -6.01623284	     -0.42113676	      0.24376043	    -75.20712206	     -3.07552183	      1.80762982	      0.00000000	      0.00000000	     28.25056950	     -2.12035534	    -13.28898140	     15.75169634	    -14.75067757	    -30.21643547	     24.82469303	     89.99559364	      0.00000000	      0.00000000	     15.99757496	    -19.67029778	    -17.23184800	     32.57121029	     89.99559364	      0.00000000	      0.00000000
      4.20000000	     68.98579023	     -1.57510738	     -3.41390797	     -0.90218040	      0.33573613	     -0.50234824	     31.74892552	    -13.59489112	      3.90862162	     42.30268492	      0.73832113	    -28.97149551	    -18.04848162	      0.00000000	     32.18066106	    -20.58875349	      4.76008717	     49.29811146	      0.86041436	    -19.95599949	    -19.36352258	      0.00000000	    -10.55892954	     -0.27074343	      0.40179300	    -19.60898805	     -0.36008877	      0.42690506	    -17.34726534	     -0.65828559	      0.42690506	    -12.06780057	     -0.65828559	      0.35156888	     -9.80502197	     -0.55210001	      0.32645681	     -6.03337234	     -0.41938158	      0.30134475	    -75.42137783	     -3.06270388	      2.23465213	      0.00000000	      0.00000000	     28.24270634	     -2.28798104	    -13.82579363	     15.69033426	    -14.87256190	    -30.15362070	     24.78070550	     89.99559364	      0.00000000	      0.00000000	     16.46519009	    -19.55092779	    -17.08876755	     32.23626592	     89.99559364	      0.00000000	      0.00000000
      4.23333333	     69.03841980	     -1.58157404	     -3.38857790	     -0.90200825	      0.33577342	     -0.50222362	     31.71793755	    -13.55505572	      3.98466850	     42.34304201	      0.73902550	    -28.88695734	    -17.99507671	      0.00000000	     32.05487830	    -20.59664547	      4.71669813	     49.03586901	      0.85583737	    -19.97100068	    -19.34545327	      0.00000000	    -10.55391572	     -0.26649449	      0.41589002	    -19.59967689	     -0.35443767	      0.44188314	    -17.33902814	     -0.64795470	      0.44188314	    -12.06207028	     -0.64795470	      0.36390376	     -9.80036614	     -0.54343556	      0.33791064	     -6.03050744	     -0.41279996	      0.31191751	    -75.38556463	     -3.01463895	      2.31305551	      0.00000000	      0.00000000	     28.23206626	     -2.33938980	    -13.90140682	     15.60572178	    -14.88777130	    -30.14350101	     24.75305249	     89.99559364	      0.00000000	      0.00000000	     16.51279992	    -19.52203467	    -17.04247324	     32.30038650	     89.99559364	      0.00000000	      0.00000000
